<?xml version="1.0" encoding="UTF-8"?>
<svg width="428px" height="298px" viewBox="0 0 428 298" version="1.1" xmlns="http://www.w3.org/2000/svg" xmlns:xlink="http://www.w3.org/1999/xlink">
    <title>logo</title>
    <defs>
        <linearGradient x1="101.302949%" y1="74.297796%" x2="1.19103375%" y2="28.8348951%" id="linearGradient-1">
            <stop stop-color="#F2BBC8" offset="0%"></stop>
            <stop stop-color="#B96975" offset="100%"></stop>
        </linearGradient>
    </defs>
    <g id="Design" stroke="none" stroke-width="1" fill="none" fill-rule="evenodd">
        <g id="00.-Loading" transform="translate(-506.000000, -363.000000)" fill="url(#linearGradient-1)">
            <g id="logo" transform="translate(506.000000, 363.000000)">
                <path d="M41.844,226.662762 C45.5304696,229.638709 47.5902962,234.193695 47.3946,238.937051 C47.3946,247.171784 42.7383,252.565584 33.924,254.539007 C33.7924331,254.564306 33.6970577,254.679419 33.6963,254.813829 C33.6932266,254.946885 33.7845284,255.063478 33.9141,255.091962 C37.2645511,256.084455 40.1025496,258.338768 41.8341,261.383073 C43.6256556,264.62944 44.5935103,268.268273 44.6523,271.978629 C44.8988074,276.59956 45.9952603,281.134851 47.8863,285.355518 C49.5561,288.861984 52.668,295.384873 59.3835,297.434451 C59.5280854,297.474622 59.6201101,297.616675 59.598,297.765562 C59.5840547,297.909402 59.4577761,298.01548 59.3142,298.003962 L59.2944,298.003962 L58.5387,297.974162 C52.8957,297.752318 44.3685,297.414584 37.9962,287.117029 C35.165047,281.923699 33.371507,276.225783 32.7162,270.34294 C31.5645,263.661118 30.5712,257.893162 25.7202,255.111829 C25.6264734,255.061581 25.5680745,254.963497 25.5684,254.856873 C25.5687245,254.755616 25.6245163,254.662741 25.7136,254.615162 C31.7467257,251.673719 35.6960452,245.65994 36.0096,238.937051 C36.1055507,233.98578 34.1464231,229.21719 30.6009,225.772073 C28.5466054,223.976074 25.900115,223.010688 23.1759,223.063584 L15.2064,223.063584 C17.8036791,224.288077 19.4641342,226.905781 19.47,229.78514 L19.47,270.991918 C19.4499982,275.087171 16.1298447,278.393322 12.0483,278.382318 L5.68434189e-14,278.382318 C0.0825,278.339273 8.4216,273.836162 8.4216,269.051607 L8.4216,231.725451 C8.51090952,225.198358 2.09109584,222.953789 0.402137691,222.477973 L0.237195206,222.432962 L0.237195206,222.432962 L0.11302957,222.401258 C0.0445653817,222.384397 0.00544761905,222.375924 5.68434189e-14,222.374873 L26.7795,222.374873 C32.1353133,222.094247 37.4328588,223.602116 41.844,226.662762 Z M387.1956,221.669607 C391.8156,221.669607 396.1287,222.18614 398.2044,228.404407 L414.4536,281.862295 C416.353406,288.680155 421.07015,294.356414 427.4127,297.457629 C427.469765,297.486504 427.499754,297.550786 427.4853,297.613251 C427.476705,297.680188 427.417008,297.728399 427.35,297.723003 C416.199613,297.491335 406.385942,290.282322 402.798,279.686895 L387.2055,226.132984 C386.4201,223.447673 385.0803,223.447673 384.5094,223.447673 C382.5294,223.447673 381.8694,225.282029 380.985,227.81834 L380.9091,228.030251 L370.7748,262.287007 C370.211622,263.835911 369.956018,265.480436 370.0224,267.127851 C370.4019,272.915673 372.2697,276.398962 376.0779,278.385629 L357.0831,278.385629 C361.911632,275.942803 365.791954,271.956217 368.1117,267.055007 C368.828666,265.535131 369.461038,263.976514 370.0059,262.38634 L380.1996,227.868007 C380.2656,227.689207 380.3316,227.503784 380.3976,227.318362 C380.437621,227.205643 380.477864,227.092289 380.518605,226.978558 L380.642606,226.636489 C381.546001,224.180586 382.808777,221.669607 387.1956,221.669607 Z M340.23,227.10314 C343.620131,230.075217 345.493333,234.423029 345.3285,238.937051 C345.3285,247.214829 340.6458,252.618562 331.7985,254.572118 C331.665343,254.602289 331.57246,254.723304 331.5774,254.860184 C331.576047,254.982471 331.664769,255.087035 331.7853,255.105207 C337.488113,256.127926 339.891234,260.633831 341.835469,265.450916 L342.071439,266.042102 C342.26649,266.535694 342.457971,267.031178 342.6489,267.525184 L342.864585,268.081522 C344.768506,272.981782 346.67772,277.458518 351.7371,277.458518 C351.9813,277.458518 352.2387,277.458518 352.4928,277.425407 L352.4928,277.441962 L352.4928,277.441962 C349.88394,279.410891 346.680161,280.420849 343.4178,280.302762 L343.4145,280.306073 C334.614349,280.306073 332.677877,274.643197 330.944913,268.429381 L330.796716,267.895539 C330.772048,267.80638 330.747382,267.717138 330.7227,267.627829 C329.4027,262.843273 328.0266,257.899784 323.598,255.128384 C323.484726,255.079118 323.408334,254.970531 323.4,254.84694 C323.414475,254.735577 323.48762,254.640674 323.5914,254.598607 C329.738503,251.74443 333.819349,245.725375 334.2075,238.940362 C334.274381,233.978684 332.278696,229.213225 328.6998,225.788629 C326.598195,224.068557 323.982435,223.113001 321.277822,223.07035 L312.8763,223.070207 C315.568882,224.213744 317.325418,226.854816 317.3445,229.788451 L317.3445,270.991918 C317.324498,275.087171 314.004345,278.393322 309.9228,278.382318 L297.8547,278.382318 C297.9372,278.339273 306.2796,273.836162 306.2796,269.051607 L306.2796,231.725451 C306.3786,224.248962 297.9405,222.411295 297.8547,222.391429 L324.2019,222.374873 C329.934772,221.99039 335.61678,223.666574 340.23,227.10314 Z M139.5108,222.39474 L139.6296,222.39474 C151.2159,222.437784 157.0899,225.997229 157.0899,232.990295 C157.094012,235.249184 155.734696,237.285715 153.651371,238.141911 C151.568045,238.998107 149.175468,238.503513 147.5991,236.890784 C146.563078,235.859668 145.982904,234.45445 145.9887,232.990295 C145.9887,232.804873 146.0118,232.546607 146.0349,232.218807 C146.413261,229.859976 146.020816,227.441626 144.9162,225.325073 C144.109226,224.123881 142.809134,223.347758 141.372,223.209273 C140.735026,223.143124 140.095077,223.109969 139.4547,223.10994 C129.9441,223.10994 125.6871,227.493851 125.6871,231.834718 C125.6871,238.056295 133.023,241.473362 140.7912,245.079162 C145.47006,247.024413 149.901286,249.522035 153.9912,252.519229 C157.843944,255.269209 160.161272,259.695687 160.2315,264.439229 C160.463155,269.626565 157.535078,274.43624 152.8296,276.597629 L152.8098,276.597629 C149.206175,278.248887 145.300199,279.131706 141.339,279.190229 C138.892309,279.168998 136.452518,278.926302 134.0493,278.465095 C132.66,278.236629 131.3235,277.888962 130.02,277.557851 C128.316046,277.04323 126.558841,276.726601 124.7829,276.614184 C123.363657,276.48203 121.99091,277.161754 121.2321,278.372384 L121.1463,261.995629 C123.581334,267.113521 126.908335,271.753589 130.9704,275.697007 C132.101747,276.659291 133.43689,277.35006 134.8743,277.716784 C139.215618,278.818864 143.765107,278.793795 148.0941,277.64394 C150.876525,276.973181 153.168542,275.002332 154.2552,272.346162 C154.506264,271.724963 154.641605,271.062815 154.6545,270.392607 C154.6545,265.257073 148.5165,262.141318 141.4116,258.532207 L141.0801,258.363308 L141.0801,258.363308 L140.414263,258.023647 C131.959736,253.704116 122.808289,248.697033 122.694,238.937051 C122.275731,234.474734 123.699983,230.035592 126.6342,226.65614 C130.180715,223.556206 134.822132,222.020169 139.5108,222.39474 Z M172.3062,221.268958 C179.829597,221.2639 186.429208,226.302781 188.43,233.579673 L199.782,272.299807 C200.8215,275.846007 201.2736,277.071118 203.082,277.071118 C205.062,277.071118 205.8144,274.93214 206.5305,272.866007 L206.5767,272.730251 L216.7077,238.470184 C217.27268,236.921546 217.531602,235.277313 217.47,233.62934 C217.0905,227.841518 215.2227,224.358229 211.4112,222.371562 L230.406,222.371562 C225.577097,224.812304 221.696488,228.79802 219.3774,233.698873 C218.65875,235.218005 218.02634,236.776718 217.4832,238.36754 L207.2796,272.889184 C207.2136,273.071295 207.1476,273.256718 207.0816,273.44214 C207.041719,273.554718 207.001617,273.667931 206.961015,273.781522 L206.83743,274.12317 L206.83743,274.12317 L206.709171,274.465535 C205.812954,276.803961 204.472143,279.084273 200.2836,279.084273 L199.789874,279.082061 C195.358603,279.04011 191.27955,278.345777 189.2748,272.352784 L176.3289,231.371162 C174.0156,223.553629 164.5776,221.29214 164.4819,221.268958 L172.3062,221.268958 Z M281.4438,222.391426 C282.434518,222.38959 283.240148,223.192011 283.2456,224.186051 L283.2456,235.645807 C282.119852,231.515513 279.720684,227.848434 276.3915,225.169451 C274.596686,223.779442 272.388694,223.034359 270.1215,223.053651 L254.0571,223.053651 C256.753626,224.200174 258.511613,226.846684 258.5286,229.78514 L258.5286,270.991918 C258.510279,273.912584 256.772591,276.546082 254.1,277.70354 L271.1643,277.70354 C272.604536,277.71496 274.028922,277.401513 275.3322,276.786362 C280.399974,274.498981 284.376483,270.31541 286.4136,265.12794 L286.4136,276.587695 C286.408148,277.581736 285.602518,278.384157 284.6118,278.382318 L249.2292,278.385629 L239.0388,278.385629 C239.1213,278.342584 247.4637,273.839473 247.4637,269.054918 L247.4637,231.725451 C247.550129,225.198358 241.129949,222.96893 239.44314,222.494755 L239.278442,222.449867 C239.133602,222.411698 239.049957,222.393318 239.0421,222.391426 L281.4438,222.391426 Z M102.3198,222.391426 C103.310518,222.38959 104.116148,223.192011 104.1216,224.186051 L104.1216,235.645807 C103.001913,231.544145 100.627681,227.898425 97.3335,225.222429 C95.5223215,223.809445 93.2883362,223.052163 90.9942,223.073518 L74.9331,223.073518 C77.6410424,224.194719 79.4060009,226.84584 79.4013,229.78514 L79.4013,270.991918 C79.3868296,273.922447 77.6426659,276.565704 74.9595,277.723407 L91.9677,277.723407 C93.4088441,277.740363 94.835041,277.429031 96.1389,276.812851 C101.231438,274.532886 105.228424,270.338149 107.2698,265.131251 L107.2698,276.591007 C107.264348,277.583218 106.460195,278.384157 105.4713,278.382318 L105.468,278.385629 L59.928,278.385629 C60.0105,278.342584 68.3496,273.839473 68.3496,269.054918 L68.3496,231.725451 C68.4245048,225.198358 62.005377,222.96893 60.3190211,222.494755 L60.1543695,222.449867 C60.0095721,222.411698 59.9259571,222.393318 59.9181,222.391426 L102.3198,222.391426 Z M275.6061,239.97674 L275.6061,257.194518 L275.5995,257.194518 C274.907552,252.481165 270.977867,248.924481 266.2341,248.718073 C271.082032,248.529122 275.064891,244.81428 275.6061,239.97674 Z M96.4887,239.960184 L96.4887,257.177962 L96.4722,257.194518 C95.7884095,252.479338 91.8640523,248.915518 87.12,248.701518 C91.967235,248.512355 95.949025,244.797202 96.4887,239.960184 Z M252.1761,51.5678955 C252.230333,51.5732187 252.277616,51.607168 252.300138,51.6569548 C252.32266,51.7067417 252.316999,51.7648023 252.285288,51.8092659 C252.253577,51.8537295 252.200633,51.877841 252.1464,51.8725177 C233.6664,51.2102955 225.7464,61.3058733 225.0864,73.7490288 C224.733069,80.487769 228.588691,85.9132878 232.927567,91.6764668 L233.535753,92.4829888 L233.535753,92.4829888 L234.147962,93.2948903 C239.566959,100.493381 245.193597,108.438149 244.0515,120.220473 C242.718167,137.389002 228.432069,150.630893 211.2693,150.60663 C209.36197,150.611375 207.459089,150.421667 205.59,150.04034 C205.451031,149.98703 205.364799,149.847009 205.379451,149.698455 C205.394102,149.5499 205.506013,149.429553 205.6527,149.404607 C219.992668,148.251682 231.204616,136.515402 231.7458,122.091251 C232.0329,99.1121399 210.8832,98.3638288 212.0976,75.8648288 C212.850717,63.7811098 221.5318,53.6793125 233.3331,51.1540066 C239.594096,50.2521465 245.960437,50.391984 252.1761,51.5678955 Z M203.4285,25.5756733 C202.756323,35.709315 196.095645,44.4513699 186.5259,47.7601177 C186.5259,47.7601177 186.720221,47.8678431 187.061253,48.0776849 L187.261534,48.2022376 C190.225443,50.064378 201.049337,57.682345 199.2804,68.6466066 C198.824175,71.5003705 198.754514,72.077642 198.644744,72.7496618 L198.620452,72.8959804 C198.612047,72.9458128 198.603281,72.9969927 198.594,73.0503844 C196.293398,86.0254106 201.801954,99.1462841 212.6619,106.558829 C212.6619,106.558829 182.2029,98.5691177 186.9252,71.6299177 C187.0308,71.0272955 187.2552,69.5968955 187.4466,68.6499177 C190.1328,54.4783621 181.1403,47.8660733 177.6357,46.2767399 C177.5004,46.2171399 177.4938,46.0482733 177.6357,46.0052288 C186.315475,43.275352 192.413341,35.4508126 192.9609,26.3405399 C193.452219,18.2110903 189.477687,10.4618759 182.599082,6.13791951 C175.720476,1.81396309 167.037042,1.60626095 159.9609,5.59642881 C159.919706,5.6227443 159.870893,5.63440556 159.8223,5.62953992 C159.77911,5.62167677 159.740332,5.59809591 159.7134,5.5633177 C159.679961,5.52521452 159.665382,5.4740376 159.6737,5.4239584 C159.682019,5.37387921 159.712352,5.33021285 159.7563,5.30505104 C187.3674,-9.79361563 204.3558,10.6260066 203.4285,25.5756733 Z" id="Combined-Shape"></path>
            </g>
        </g>
    </g>
</svg>