<?xml version="1.0" encoding="UTF-8"?>
<svg width="29px" height="46px" viewBox="0 0 29 46" version="1.1" xmlns="http://www.w3.org/2000/svg" xmlns:xlink="http://www.w3.org/1999/xlink">
    <title>Combined Shape</title>
    <g id="Symbols" stroke="none" stroke-width="1" fill="none" fill-rule="evenodd">
        <g id="imago" transform="translate(-48.000000, 0.000000)" fill="#FFFFFF">
            <path d="M76.417,15.5741966 C76.4334342,15.5758043 76.4477624,15.5860574 76.4545872,15.6010937 C76.461412,15.61613 76.4596966,15.6336651 76.4500872,15.6470937 C76.4404778,15.6605223 76.4244342,15.6678043 76.408,15.6661966 C70.808,15.4661966 68.408,18.5151966 68.208,22.2731966 C67.959,27.0061966 74.608,29.5941966 73.955,36.3081966 C73.5509597,41.4933228 69.2218392,45.4925516 64.021,45.4852238 C63.4430212,45.486657 62.8663908,45.4293625 62.3,45.3141966 C62.2578882,45.2980964 62.2317574,45.2558081 62.2361972,45.2109427 C62.240637,45.1660773 62.2745494,45.1297308 62.319,45.1221966 C66.6644449,44.773998 70.0620049,41.229484 70.226,36.8731966 C70.2676875,33.54778 68.8178889,31.7639024 67.3368598,30.060208 L66.9507561,29.616624 C65.4753372,27.9158247 64.0956667,26.1681341 64.272,22.9121966 C64.5002171,19.2627513 67.1308486,16.2118729 70.707,15.4491966 C72.6042715,15.1768228 74.5334657,15.2190556 76.417,15.5741966 Z M61.645,7.72419662 C61.4413101,10.7846925 59.4229226,13.4249104 56.523,14.4241966 C56.523,14.4241966 61.008,16.9021966 60.388,20.7321966 C60.23,21.7171966 60.225,21.8041966 60.18,22.0621966 C59.482848,25.9808287 61.1521074,29.9435086 64.443,32.1821966 C64.443,32.1821966 55.213,29.7691966 56.644,21.6331966 C56.676,21.4511966 56.744,21.0191966 56.802,20.7331966 C57.616,16.4531966 54.891,14.4561966 53.829,13.9761966 C53.788,13.9581966 53.786,13.9071966 53.829,13.8941966 C56.4592349,13.0697372 58.307073,10.7066212 58.473,7.95519662 C58.6218845,5.5 57.417481,3.15962696 55.333055,1.85373408 C53.248629,0.547841202 50.6172854,0.485112368 48.473,1.69019662 C48.460517,1.69814425 48.4457252,1.70166611 48.431,1.70019662 C48.4179122,1.69782184 48.4061613,1.69070011 48.398,1.68019662 C48.3878668,1.66868895 48.383449,1.65323283 48.3859697,1.63810824 C48.3884905,1.62298365 48.3976824,1.60979583 48.411,1.60219662 C56.778,-2.95780338 61.926,3.20919662 61.645,7.72419662 Z" id="Combined-Shape"></path>
        </g>
    </g>
</svg>